<svg width="330" height="291" viewBox="0 0 330 291" fill="none" xmlns="http://www.w3.org/2000/svg">
<path d="M206.708 192.779H184.159L182.274 190.893V138.042C182.274 128.637 178.584 121.35 167.26 121.095C161.431 120.941 154.764 121.095 147.637 121.378L146.568 122.472V190.867L144.685 192.753H122.134L120.251 190.867V100.584L122.134 98.698H172.881C192.604 98.698 208.589 114.698 208.589 134.448V190.893L206.708 192.779Z" fill="#014847"/>
<path d="M151.427 288.719V220.99L153.31 219.101H175.91L177.793 220.987V288.719L175.91 290.605H153.312L151.427 288.719ZM151.427 70.4873V2.75772L153.31 0.869629H175.91L177.793 2.75515V70.4873L175.91 72.3728H153.312L151.427 70.4873ZM326.985 158.937H236.789L234.906 157.052V134.425L236.789 132.54H326.985L328.868 134.425V157.054L326.985 158.937ZM92.0784 158.937H1.88313L0 157.052V134.425L1.88313 132.54H92.0784L93.9615 134.425V157.054L92.0784 158.937ZM70.2669 67.277V64.1671L85.7687 48.6482H88.8722L112.567 72.3728V88.8101L110.378 91.0017H93.9615L70.2669 67.277ZM88.8722 242.8H85.7687L70.2695 227.281V224.171L93.9641 200.449H110.38L112.567 202.638V219.076L88.8722 242.8Z" fill="#05BDBA"/>
</svg>
