<svg width="77" height="58" viewBox="0 0 77 58" fill="none" xmlns="http://www.w3.org/2000/svg">
<path d="M72.1875 0H4.8125C3.53615 0 2.31207 0.509225 1.40955 1.41565C0.50703 2.32208 0 3.55145 0 4.83333V53.1667C0 54.4485 0.50703 55.6779 1.40955 56.5844C2.31207 57.4908 3.53615 58 4.8125 58H72.1875C73.4639 58 74.6879 57.4908 75.5905 56.5844C76.493 55.6779 77 54.4485 77 53.1667V4.83333C77 3.55145 76.493 2.32208 75.5905 1.41565C74.6879 0.509225 73.4639 0 72.1875 0ZM68.4819 53.1667H8.80687L25.6506 35.67L22.1856 32.3108L4.8125 50.3633V8.50667L34.7222 38.4008C35.6239 39.301 36.8436 39.8063 38.115 39.8063C39.3864 39.8063 40.6061 39.301 41.5078 38.4008L72.1875 7.7575V50.0492L54.4775 32.2625L51.0847 35.67L68.4819 53.1667ZM7.96469 4.83333H68.2894L38.115 34.9692L7.96469 4.83333Z" fill="rgb(33, 39, 36)"/>
<path d="M72.1875 0H4.8125C3.53615 0 2.31207 0.509225 1.40955 1.41565C0.50703 2.32208 0 3.55145 0 4.83333V53.1667C0 54.4485 0.50703 55.6779 1.40955 56.5844C2.31207 57.4908 3.53615 58 4.8125 58H72.1875C73.4639 58 74.6879 57.4908 75.5905 56.5844C76.493 55.6779 77 54.4485 77 53.1667V4.83333C77 3.55145 76.493 2.32208 75.5905 1.41565C74.6879 0.509225 73.4639 0 72.1875 0ZM68.4819 53.1667H8.80687L25.6506 35.67L22.1856 32.3108L4.8125 50.3633V8.50667L34.7222 38.4008C35.6239 39.301 36.8436 39.8063 38.115 39.8063C39.3864 39.8063 40.6061 39.301 41.5078 38.4008L72.1875 7.7575V50.0492L54.4775 32.2625L51.0847 35.67L68.4819 53.1667ZM7.96469 4.83333H68.2894L38.115 34.9692L7.96469 4.83333Z" stroke="rgb(33, 39, 36)"/>
</svg>
