<svg width="56" height="71" viewBox="0 0 56 71" fill="none" xmlns="http://www.w3.org/2000/svg">
<g clip-path="url(#clip0_143_2)">
<path d="M28 39.8431C25.595 39.8431 23.244 39.133 21.2443 37.8026C19.2446 36.4722 17.686 34.5812 16.7657 32.3689C15.8453 30.1565 15.6045 27.7221 16.0737 25.3734C16.5429 23.0248 17.701 20.8674 19.4016 19.1742C21.1022 17.4809 23.2689 16.3278 25.6277 15.8606C27.9865 15.3934 30.4315 15.6332 32.6534 16.5496C34.8753 17.466 36.7745 19.0178 38.1106 21.0089C39.4468 23 40.1599 25.3408 40.1599 27.7355C40.1561 30.9454 38.8737 34.0228 36.5941 36.2926C34.3145 38.5624 31.2238 39.8392 28 39.8431ZM28 20.471C26.557 20.471 25.1464 20.897 23.9466 21.6953C22.7468 22.4935 21.8116 23.6281 21.2594 24.9555C20.7072 26.2829 20.5627 27.7436 20.8442 29.1527C21.1257 30.5619 21.8206 31.8563 22.841 32.8723C23.8613 33.8883 25.1614 34.5801 26.5766 34.8604C27.9919 35.1407 29.4589 34.9969 30.792 34.447C32.1252 33.8972 33.2647 32.9661 34.0664 31.7715C34.8681 30.5768 35.296 29.1723 35.296 27.7355C35.294 25.8094 34.5247 23.9628 33.1569 22.6008C31.789 21.2389 29.9344 20.4729 28 20.471Z" fill="rgb(33, 39, 36)" stroke="rgb(33, 39, 36)" stroke-width="1.5"/>
<path d="M28 68.9012L7.48377 44.8096C7.19869 44.4478 6.91658 44.0838 6.63744 43.7175C3.1329 39.1209 1.23966 33.5065 1.24816 27.7355C1.24816 20.671 4.06665 13.8959 9.08359 8.90056C14.1005 3.90523 20.905 1.09888 28 1.09888C35.095 1.09888 41.8995 3.90523 46.9164 8.90056C51.9333 13.8959 54.7518 20.671 54.7518 27.7355C54.7603 33.5039 52.8679 39.1158 49.365 43.7102L49.3626 43.7175C49.3626 43.7175 48.633 44.6716 48.5235 44.7999L28 68.9012ZM10.5213 40.7996C10.5213 40.7996 11.088 41.5454 11.2169 41.7052L28 61.4139L44.805 41.6786C44.912 41.5454 45.4811 40.7947 45.4835 40.7923C48.3463 37.0368 49.8935 32.4503 49.8879 27.7355C49.8879 21.9555 47.5818 16.4122 43.4771 12.3251C39.3723 8.238 33.805 5.9419 28 5.9419C22.195 5.9419 16.6277 8.238 12.5229 12.3251C8.41817 16.4122 6.11213 21.9555 6.11213 27.7355C6.10703 32.4532 7.6559 37.0424 10.5213 40.7996Z" fill="rgb(33, 39, 36)" stroke="rgb(33, 39, 36)" stroke-width="1.5"/>
</g>
<defs>
<clipPath id="clip0_143_2">
<rect width="56" height="71" fill="white"/>
</clipPath>
</defs>
</svg>
