<svg width="300" height="291" viewBox="0 0 300 291" fill="none" xmlns="http://www.w3.org/2000/svg">
<path d="M101.5 291C128.272 291 150 269.272 150 242.5V194H101.5C74.728 194 53 215.728 53 242.5C53 269.272 74.728 291 101.5 291Z" fill="#0ACF83"/>
<path d="M53 145.5C53 118.728 74.728 97 101.5 97H150V194H101.5C74.728 194 53 172.272 53 145.5Z" fill="#A259FF"/>
<path d="M53 48.5C53 21.728 74.728 0 101.5 0H150V97H101.5C74.728 97 53 75.272 53 48.5Z" fill="#F24E1E"/>
<path d="M150 0H198.5C225.272 0 247 21.728 247 48.5C247 75.272 225.272 97 198.5 97H150V0Z" fill="#FF7262"/>
<path d="M247 145.5C247 172.272 225.272 194 198.5 194C171.728 194 150 172.272 150 145.5C150 118.728 171.728 97 198.5 97C225.272 97 247 118.728 247 145.5Z" fill="#1ABCFE"/>
</svg>
