<svg width="300" height="291" viewBox="0 0 300 291" fill="none" xmlns="http://www.w3.org/2000/svg">
<g clip-path="url(#clip0_133_5)">
<path d="M150 0.666748C130.411 0.666748 111.014 4.5035 92.9164 11.958C74.8186 19.4124 58.3746 30.3386 44.5232 44.1126C16.549 71.9305 0.833313 109.66 0.833313 149C0.833313 214.563 43.6441 270.188 102.863 289.917C110.322 291.103 112.708 286.505 112.708 282.5V257.432C71.3891 266.332 62.5883 237.555 62.5883 237.555C55.7266 220.348 46.0308 215.75 46.0308 215.75C32.4566 206.553 47.075 206.85 47.075 206.85C61.9916 207.888 69.8975 222.128 69.8975 222.128C82.875 244.675 104.802 238 113.305 234.44C114.647 224.798 118.526 218.272 122.702 214.563C89.5875 210.855 54.8316 198.098 54.8316 141.583C54.8316 125.118 60.5 111.917 70.1958 101.385C68.7041 97.6768 63.4833 82.2501 71.6875 62.2251C71.6875 62.2251 84.2175 58.2201 112.708 77.3551C124.492 74.0918 137.321 72.4601 150 72.4601C162.679 72.4601 175.507 74.0918 187.292 77.3551C215.782 58.2201 228.312 62.2251 228.312 62.2251C236.517 82.2501 231.296 97.6768 229.804 101.385C239.5 111.917 245.168 125.118 245.168 141.583C245.168 198.247 210.263 210.707 176.999 214.415C182.369 219.013 187.292 228.062 187.292 241.857V282.5C187.292 286.505 189.678 291.252 197.286 289.917C256.505 270.04 299.167 214.563 299.167 149C299.167 129.521 295.308 110.232 287.812 92.2354C280.316 74.2387 269.328 57.8866 255.477 44.1126C241.625 30.3386 225.181 19.4124 207.084 11.958C188.986 4.5035 169.589 0.666748 150 0.666748Z" fill="#0E0E0E"/>
</g>
<defs>
<clipPath id="clip0_133_5">
<rect width="300" height="291" fill="white"/>
</clipPath>
</defs>
</svg>
