<svg width="67" height="64" viewBox="0 0 67 64" fill="none" xmlns="http://www.w3.org/2000/svg">
<g clip-path="url(#clip0_143_8)">
<path d="M61.5551 53.3803L63.3175 55.1624L61.5518 53.3803H61.5551ZM19.5587 46.1583L21.3177 44.3763L19.5553 46.1583H19.5587ZM5.81304 10.6781L4.05402 8.89935L5.81637 10.6814L5.81304 10.6781ZM45.5874 43.3579L47.1066 41.8405L43.5785 38.2764L42.0661 39.7938L45.5874 43.3579ZM52.2004 41.2041L58.5668 44.6844L60.9488 40.2695L54.5857 36.7925L52.2004 41.2041ZM59.7895 51.5983L55.0588 56.3314L58.5801 59.8922L63.3108 55.1624L59.7895 51.5983ZM52.1737 57.8522C47.3431 58.3078 34.8501 57.9024 21.3177 44.3763L17.793 47.937C32.5581 62.6993 46.6135 63.4228 52.6401 62.8567L52.1704 57.8522H52.1737ZM21.3177 44.3763C8.42158 31.4798 6.28277 20.6368 6.01626 15.9304L1.02572 16.2151C1.35887 22.1375 4.00739 34.1563 17.793 47.937L21.3177 44.3763ZM25.8984 23.675L26.8546 22.717L23.3366 19.1562L22.3804 20.1109L25.9018 23.6716L25.8984 23.675ZM27.6142 10.5407L23.4165 4.89978L19.4154 7.91453L23.6131 13.5521L27.6142 10.5407ZM9.28776 3.67043L4.05736 8.896L7.58205 12.4601L12.8091 7.23454L9.28776 3.67043ZM24.1394 21.8929C22.3738 20.1109 22.3738 20.1109 22.3738 20.1176H22.3671L22.3571 20.131C22.1998 20.2924 22.0581 20.4685 21.934 20.6569C21.7541 20.9249 21.5576 21.2766 21.391 21.7221C20.9853 22.8721 20.8843 24.1085 21.0978 25.3096C21.5442 28.2072 23.5298 32.0359 28.6136 37.1208L32.1383 33.5567C27.3776 28.8001 26.2449 25.9059 26.035 24.5392C25.9351 23.8894 26.0384 23.5678 26.0684 23.4941C26.085 23.4472 26.0917 23.4438 26.0684 23.474C26.039 23.5204 26.0055 23.5642 25.9684 23.6046L25.9351 23.6381C25.9243 23.6485 25.9132 23.6586 25.9018 23.6683L24.1361 21.8929H24.1394ZM28.6136 37.1208C33.7007 42.2056 37.5286 44.1887 40.4136 44.6308C41.8895 44.8586 43.0788 44.6777 43.9816 44.3394C44.4865 44.1516 44.9587 43.8848 45.3809 43.5489C45.4382 43.5007 45.4938 43.4504 45.5474 43.3981L45.5708 43.378L45.5808 43.368L45.5841 43.3613C45.5841 43.3613 45.5874 43.358 43.8251 41.5759C42.0594 39.7938 42.0694 39.7905 42.0694 39.7905L42.076 39.7838L42.0827 39.7771L42.1027 39.7603L42.136 39.7269C42.1761 39.6907 42.2183 39.6571 42.2626 39.6264C42.2959 39.6029 42.2859 39.613 42.2393 39.6331C42.156 39.6632 41.8295 39.767 41.1732 39.6666C39.794 39.4522 36.8956 38.3133 32.1383 33.5567L28.6136 37.1208ZM23.4165 4.89643C20.0184 0.340807 13.3422 -0.382732 9.28776 3.67043L12.8091 7.23454C14.5815 5.46253 17.7264 5.64677 19.4154 7.91453L23.4132 4.89643H23.4165ZM6.01959 15.9338C5.95296 14.7748 6.48266 13.5622 7.58205 12.4635L4.05402 8.89935C2.26503 10.6881 0.855817 13.2205 1.02572 16.2151L6.01959 15.9338ZM55.0588 56.3314C54.146 57.2493 53.1598 57.7651 52.1771 57.8555L52.6401 62.8567C55.0888 62.6256 57.091 61.3862 58.5835 59.8955L55.0588 56.3314ZM26.8546 22.717C30.1361 19.4376 30.3793 14.2556 27.6175 10.5441L23.6164 13.5555C24.959 15.361 24.7591 17.7292 23.3332 19.1596L26.8546 22.717ZM58.5701 44.6878C61.2919 46.1751 61.715 49.6789 59.7928 51.6016L63.3175 55.1624C67.7816 50.6972 66.4057 43.2508 60.9521 40.2729L58.5701 44.6878ZM47.1066 41.8439C48.3858 40.5643 50.4447 40.2494 52.2037 41.2074L54.589 36.7958C50.9777 34.8195 46.5002 35.3655 43.5819 38.2798L47.1066 41.8439Z" fill="rgb(33, 39, 36)"/>
<path d="M43.8251 41.5759L42.0661 39.7938M43.8251 41.5759C45.5874 43.358 45.5841 43.3613 45.5841 43.3613L45.5808 43.368L45.5708 43.378L45.5474 43.3981C45.4938 43.4504 45.4382 43.5007 45.3809 43.5489C44.9587 43.8848 44.4865 44.1516 43.9816 44.3394C43.0788 44.6777 41.8895 44.8586 40.4136 44.6308C37.5286 44.1887 33.7007 42.2056 28.6136 37.1208M43.8251 41.5759C42.0594 39.7938 42.0694 39.7905 42.0694 39.7905L42.076 39.7838L42.0827 39.7771L42.1027 39.7603L42.136 39.7269C42.1761 39.6907 42.2183 39.6571 42.2626 39.6264C42.2959 39.6029 42.2859 39.613 42.2393 39.6331C42.156 39.6632 41.8295 39.767 41.1732 39.6666C39.794 39.4522 36.8956 38.3133 32.1383 33.5567M42.0661 39.7938L43.5785 38.2764L47.1066 41.8405M42.0661 39.7938L45.5874 43.3579L47.1066 41.8405M45.3442 40.0585L47.1066 41.8405M53.3964 38.9966L52.2037 41.2074M52.2037 41.2074C50.4447 40.2494 48.3858 40.5643 47.1066 41.8439L43.5819 38.2798C46.5002 35.3655 50.9777 34.8195 54.589 36.7958L52.2037 41.2074ZM59.7595 42.477L58.5668 44.6844M58.5668 44.6844L52.2004 41.2041L54.5857 36.7925L60.9488 40.2695L58.5668 44.6844ZM63.3175 55.1624L61.5551 53.3803H61.5518L63.3175 55.1624ZM63.3175 55.1624L59.7928 51.6016C61.715 49.6789 61.2919 46.1751 58.5701 44.6878L60.9521 40.2729C66.4057 43.2508 67.7816 50.6972 63.3175 55.1624ZM56.8245 58.1101L55.0588 56.3314M55.0588 56.3314L59.7895 51.5983L63.3108 55.1624L58.5801 59.8922L55.0588 56.3314ZM55.0588 56.3314C54.146 57.2493 53.1598 57.7651 52.1771 57.8555L52.6401 62.8567M55.0588 56.3314L58.5835 59.8955C57.091 61.3862 55.0888 62.6256 52.6401 62.8567M52.4069 60.3544L52.6401 62.8567M52.6401 62.8567C46.6135 63.4228 32.5581 62.6993 17.793 47.937M52.6401 62.8567L52.1704 57.8522H52.1737C47.3431 58.3078 34.8501 57.9024 21.3177 44.3763M21.3177 44.3763L19.5587 46.1583H19.5553L21.3177 44.3763ZM21.3177 44.3763L17.793 47.937M21.3177 44.3763C8.42158 31.4798 6.28277 20.6368 6.01626 15.9304L1.02572 16.2151M3.52099 16.0745L1.02572 16.2151M1.02572 16.2151C1.35887 22.1375 4.00739 34.1563 17.793 47.937M1.02572 16.2151C0.855817 13.2205 2.26503 10.6881 4.05402 8.89935M1.02572 16.2151L6.01959 15.9338C5.95296 14.7748 6.48266 13.5622 7.58205 12.4635L4.05402 8.89935M25.0889 20.9349L26.8546 22.717M26.8546 22.717L25.8984 23.675L25.9018 23.6716L22.3804 20.1109L23.3366 19.1562L26.8546 22.717ZM26.8546 22.717C30.1361 19.4376 30.3793 14.2556 27.6175 10.5441L23.6164 13.5555C24.959 15.361 24.7591 17.7292 23.3332 19.1596L26.8546 22.717ZM25.6119 12.0447L27.6108 10.5407M21.4176 6.40716L19.4154 7.91453M19.4154 7.91453L23.4165 4.89978L27.6142 10.5407L23.6131 13.5521L19.4154 7.91453ZM19.4154 7.91453C17.7264 5.64677 14.5815 5.46253 12.8091 7.23454M19.4154 7.91453L23.4132 4.89643H23.4165C20.0184 0.340807 13.3422 -0.382732 9.28776 3.67043M11.0434 5.45248L12.8091 7.23454M12.8091 7.23454L7.58205 12.4601L4.05736 8.896L9.28776 3.67043M12.8091 7.23454L9.28776 3.67043M4.05402 8.89935L5.81304 10.6781L5.81637 10.6814L4.05402 8.89935ZM30.3726 35.3387L32.135 33.5567M28.6136 37.1208C23.5298 32.0359 21.5442 28.2072 21.0978 25.3096C20.8843 24.1085 20.9853 22.8721 21.391 21.7221C21.5576 21.2766 21.7541 20.9249 21.934 20.6569C22.0581 20.4685 22.1998 20.2924 22.3571 20.131L22.3671 20.1176H22.3738C22.3738 20.1109 22.3738 20.1109 24.1394 21.8929H24.1361L25.9018 23.6683C25.9132 23.6586 25.9243 23.6485 25.9351 23.6381L25.9684 23.6046C26.0055 23.5642 26.039 23.5204 26.0684 23.474C26.0917 23.4438 26.085 23.4472 26.0684 23.4941C26.0384 23.5678 25.9351 23.8894 26.035 24.5392C26.2449 25.9059 27.3776 28.8001 32.1383 33.5567M28.6136 37.1208L32.1383 33.5567" stroke="rgb(33, 39, 36)"/>
</g>
<defs>
<clipPath id="clip0_143_8">
<rect width="67" height="64" fill="white"/>
</clipPath>
</defs>
</svg>
